<?xml version="1.0" standalone="no"?>
<!DOCTYPE svg PUBLIC "-//W3C//DTD SVG 20010904//EN"
 "http://www.w3.org/TR/2001/REC-SVG-20010904/DTD/svg10.dtd">
<svg version="1.0" xmlns="http://www.w3.org/2000/svg"
 width="2560.000000pt" height="2560.000000pt" viewBox="0 0 2560.000000 2560.000000"
 preserveAspectRatio="xMidYMid meet">
<metadata>
Created by potrace 1.14, written by Peter Selinger 2001-2017
</metadata>
<g transform="translate(0.000000,2560.000000) scale(0.100000,-0.100000)"
fill="#000000" stroke="none">
<path d="M12040 17690 c-32 -8 -92 -19 -130 -24 -75 -11 -350 -127 -350 -148
0 -4 -5 -8 -10 -8 -11 0 -62 -34 -90 -60 -8 -8 -33 -28 -55 -45 -21 -16 -48
-41 -59 -54 -12 -13 -34 -37 -49 -52 -16 -16 -26 -29 -23 -29 3 0 -2 -9 -11
-19 -46 -51 -128 -183 -138 -221 0 -3 -6 -14 -12 -25 -13 -24 -33 -87 -32 -99
0 -5 -4 -12 -10 -15 -5 -4 -13 -22 -16 -41 -3 -19 -8 -43 -11 -52 -5 -17 -8
-30 -21 -103 -11 -56 -10 -3420 1 -3475 5 -25 9 -52 9 -60 0 -8 4 -21 10 -27
5 -7 7 -13 4 -13 -4 0 0 -18 8 -40 8 -22 12 -40 8 -40 -3 0 1 -7 8 -17 8 -9
13 -18 12 -19 -3 -4 3 -22 23 -72 7 -18 14 -36 14 -40 1 -4 7 -13 13 -21 6 -7
12 -19 13 -25 2 -12 66 -115 89 -143 6 -7 16 -19 23 -27 6 -8 12 -18 12 -21 0
-3 24 -30 53 -60 28 -30 59 -62 68 -72 9 -10 31 -29 49 -43 18 -14 38 -31 45
-37 8 -7 17 -13 21 -13 4 0 15 -7 25 -16 37 -34 195 -115 262 -134 25 -8 44
-17 42 -20 -2 -3 4 -6 13 -6 26 -1 80 -11 89 -17 9 -6 82 -15 158 -21 22 -2
845 -4 1828 -5 l1788 -1 22 -23 c12 -12 38 -42 57 -65 41 -51 63 -77 93 -112
13 -14 58 -68 101 -120 43 -52 83 -99 90 -105 6 -5 24 -27 39 -48 16 -20 39
-49 52 -63 13 -14 38 -44 57 -67 18 -23 44 -54 58 -69 14 -15 30 -34 35 -41
38 -48 110 -134 120 -142 6 -5 23 -27 37 -47 13 -21 28 -35 31 -31 4 3 7 1 7
-6 0 -6 9 -22 20 -34 63 -70 88 -98 110 -127 14 -18 33 -42 43 -54 11 -11 35
-41 55 -65 21 -24 46 -54 57 -67 11 -12 34 -38 50 -59 17 -20 37 -45 45 -54 8
-10 33 -40 55 -67 22 -26 50 -58 63 -70 12 -13 22 -25 22 -28 0 -4 42 -55 72
-87 9 -9 14 -20 11 -23 -4 -3 2 -6 12 -6 10 0 15 -3 12 -7 -4 -3 2 -12 13 -20
11 -8 20 -21 20 -29 0 -8 5 -12 10 -9 6 3 10 2 10 -3 0 -6 11 -23 25 -38 51
-61 68 -80 98 -118 30 -36 143 -150 178 -178 8 -7 38 -24 65 -38 27 -14 51
-27 54 -30 10 -10 73 -10 108 0 36 10 102 59 102 76 0 4 6 15 14 23 8 9 17 28
20 43 2 15 7 31 10 36 5 9 15 57 22 107 4 31 5 1166 1 1613 l-2 252 75 1 c172
2 223 10 395 59 59 18 201 87 257 126 26 19 48 32 48 29 0 -6 61 47 127 111
29 28 53 48 53 45 0 -3 10 9 21 27 12 17 25 32 29 32 5 0 12 9 15 20 4 12 15
28 25 38 24 22 50 68 104 177 51 105 60 126 57 142 -1 6 3 14 9 18 5 3 10 15
10 26 0 10 4 19 10 19 5 0 7 6 4 14 -3 8 0 34 7 57 6 24 11 56 11 72 0 15 3
27 6 27 9 0 7 3414 -1 3450 -10 41 -19 84 -21 102 -1 10 -5 21 -9 24 -4 4 -7
16 -7 26 0 10 -7 35 -17 56 -9 20 -15 41 -14 46 1 4 -5 19 -14 32 -8 13 -15
30 -15 39 0 8 -3 15 -7 15 -5 0 -19 25 -33 55 -14 30 -28 55 -32 55 -5 0 -8 6
-8 13 0 8 -9 22 -20 32 -11 10 -20 22 -20 26 0 18 -157 181 -215 224 -22 17
-42 32 -45 35 -24 24 -250 146 -250 135 0 -2 -19 5 -43 15 -40 18 -84 30 -167
46 -19 3 -46 9 -60 12 -39 9 -6070 11 -6110 2z"/>
<path d="M7988 15885 c-2 -2 -34 -6 -72 -10 -38 -3 -72 -8 -75 -9 -3 -2 -28
-7 -56 -10 -27 -4 -63 -11 -80 -16 -16 -5 -77 -24 -135 -42 -58 -17 -108 -31
-112 -30 -5 1 -8 -2 -8 -7 0 -5 -10 -13 -22 -17 -54 -17 -177 -81 -190 -99 -4
-5 -8 -6 -8 -2 0 9 -133 -82 -138 -95 -2 -4 -8 -8 -13 -8 -11 0 -42 -26 -120
-101 -33 -31 -61 -53 -64 -51 -3 3 -5 1 -5 -4 0 -5 -23 -34 -50 -64 -54 -59
-187 -249 -183 -262 2 -4 -1 -8 -6 -8 -9 0 -27 -40 -22 -49 2 -2 -1 -7 -6 -10
-17 -11 -109 -227 -116 -269 -1 -9 -6 -23 -11 -30 -4 -7 -6 -16 -3 -18 3 -3
-1 -26 -9 -51 -8 -25 -11 -49 -8 -54 3 -5 2 -9 -3 -9 -4 0 -9 -13 -10 -28 -1
-15 -5 -41 -10 -57 -4 -17 -9 -775 -10 -1685 -2 -1415 0 -1666 12 -1730 8 -41
15 -87 15 -102 0 -16 4 -28 8 -28 4 0 9 -10 9 -22 1 -13 3 -30 6 -38 2 -8 8
-34 12 -57 4 -24 12 -43 17 -43 6 0 8 -6 5 -14 -3 -7 -2 -17 2 -22 5 -5 16
-35 26 -66 10 -32 22 -58 28 -58 6 0 7 -3 4 -7 -11 -10 142 -281 171 -303 4
-3 20 -24 35 -47 35 -51 221 -243 235 -243 6 0 15 -6 19 -13 4 -7 26 -26 48
-42 22 -17 42 -33 45 -36 19 -23 315 -184 355 -194 6 -1 21 -7 35 -12 31 -13
173 -53 209 -59 14 -3 35 -8 46 -11 27 -9 39 -11 114 -18 36 -4 70 -9 76 -13
7 -5 10 -233 10 -697 0 -675 3 -775 27 -818 6 -12 11 -23 10 -24 -1 -2 -2 -4
-1 -5 0 -2 2 -10 4 -19 6 -30 55 -94 91 -118 34 -23 99 -32 144 -20 26 7 119
58 139 76 56 51 101 97 146 148 28 32 56 63 63 71 6 7 12 15 12 18 0 3 10 16
23 28 12 13 38 43 57 67 19 25 41 50 48 57 6 7 12 18 12 24 0 6 5 8 10 5 6 -3
10 -2 10 4 0 5 6 16 13 23 7 7 55 65 107 128 52 63 97 117 100 120 3 3 38 46
79 95 40 50 83 98 93 108 11 9 17 17 14 17 -3 0 2 8 11 18 37 38 83 96 83 104
0 5 5 6 10 3 6 -3 10 0 10 7 0 7 20 35 45 62 25 26 45 52 45 57 0 4 8 14 18
21 9 7 29 29 44 48 15 19 38 48 52 63 13 16 39 46 56 67 18 22 39 48 48 58 10
11 40 48 67 82 71 88 102 114 136 115 16 0 29 -4 29 -10 0 -7 3 -7 8 0 8 12
81 14 98 3 6 -4 14 -4 18 0 12 11 70 9 78 -3 5 -7 8 -7 8 1 0 11 78 13 97 1 6
-4 14 -4 17 1 4 6 161 8 176 2 3 -1 10 -1 15 0 29 8 91 4 97 -5 5 -7 8 -7 8 1
0 6 15 9 38 7 46 -4 50 -4 87 0 17 2 37 0 46 -4 9 -5 19 -5 23 -2 10 10 86 11
86 1 0 -5 6 -6 13 -1 16 10 58 11 79 1 9 -5 19 -5 22 0 6 9 87 9 103 -1 6 -4
14 -4 17 1 4 7 54 9 81 2 6 -1 12 -1 15 0 15 7 90 5 90 -3 0 -4 6 -5 13 0 17
11 87 10 87 0 0 -5 6 -5 13 0 6 5 30 8 52 6 52 -4 53 -4 98 0 21 2 40 0 43 -5
3 -5 10 -5 16 -2 16 10 128 11 134 2 3 -5 10 -5 16 -2 19 12 98 11 98 0 0 -7
3 -8 8 -1 4 6 23 9 42 8 48 -4 51 -4 85 0 17 2 37 0 46 -4 9 -5 19 -5 23 -2
10 10 86 11 86 1 0 -5 6 -6 13 -1 16 10 58 11 79 1 9 -5 19 -5 22 0 6 9 87 9
103 -1 6 -4 14 -4 17 1 4 7 54 9 81 2 6 -1 12 -1 15 0 15 7 90 5 90 -3 0 -4 6
-5 13 0 17 11 81 10 89 -2 5 -7 8 -6 8 1 0 9 65 12 95 4 6 -1 12 -1 15 0 16 7
90 5 90 -2 0 -5 5 -6 12 -2 16 10 128 12 134 2 3 -5 10 -5 17 -1 18 11 91 10
99 -2 5 -7 8 -7 8 1 0 6 15 9 38 7 46 -4 50 -4 87 0 17 2 37 0 46 -4 9 -5 19
-5 23 -2 10 10 86 11 86 1 0 -5 6 -6 13 -1 16 10 58 11 79 1 9 -5 19 -5 22 0
6 10 87 9 104 -2 6 -4 12 -3 12 2 0 10 76 9 86 -1 4 -3 14 -3 23 2 14 7 49 8
76 1 6 -1 12 -1 15 0 3 1 39 3 80 5 127 7 222 21 315 47 39 10 77 21 85 23 35
8 168 59 205 78 22 12 42 21 45 22 3 0 12 5 20 10 28 18 75 45 100 57 14 7 27
15 30 19 8 10 55 33 63 31 4 -1 7 5 7 13 0 8 4 15 9 15 12 0 182 140 215 178
6 6 25 27 41 46 17 18 44 50 60 70 17 21 38 46 47 56 9 10 14 21 11 24 -3 3 2
8 11 12 9 4 23 22 31 40 8 19 19 34 25 34 6 0 8 5 5 10 -3 6 -1 10 4 10 6 0
11 6 11 14 0 8 7 21 15 30 9 8 16 18 15 21 0 3 15 35 33 73 41 81 90 207 84
216 -1 1 4 10 12 19 7 10 11 17 8 17 -4 0 0 18 8 40 8 22 12 40 10 40 -3 0 0
11 5 26 6 14 12 42 15 62 2 20 7 48 10 62 3 14 6 40 7 58 1 17 6 32 11 32 6 0
6 5 0 13 -6 6 -8 30 -6 52 2 22 5 79 6 128 l2 87 -1615 0 c-1482 1 -1686 2
-1805 14 -32 3 -144 25 -268 51 -9 2 -22 7 -28 10 -5 4 -25 9 -42 12 -17 3
-44 11 -59 19 -15 8 -32 14 -38 14 -5 0 -32 10 -58 21 -26 12 -63 28 -82 36
-64 28 -154 73 -195 98 -22 14 -49 29 -60 34 -12 5 -27 16 -34 25 -7 9 -20 16
-28 16 -7 0 -16 7 -19 15 -4 8 -11 15 -16 15 -10 0 -53 31 -95 70 -12 11 -25
20 -29 20 -14 0 -284 271 -284 285 0 4 -21 32 -45 59 -20 22 -85 116 -85 123
0 3 -6 14 -14 22 -30 34 -183 331 -192 374 -1 4 -3 9 -4 12 -1 3 -3 9 -4 14 0
5 -4 13 -8 17 -5 4 -8 16 -8 26 0 10 -4 26 -9 36 -16 33 -30 85 -25 93 3 5 0
9 -6 9 -6 0 -9 3 -7 8 3 4 -1 29 -7 57 -7 27 -12 59 -12 70 1 11 -1 22 -5 25
-6 5 -14 61 -25 175 -3 28 -6 628 -6 1335 l-1 1286 -1059 0 c-582 0 -1058 -4
-1058 -9 0 -4 -4 -5 -10 -2 -13 8 -47 15 -52 10z"/>
</g>
</svg>
